<!DOCTYPE svg PUBLIC "-//W3C//DTD SVG 1.1//EN" "http://www.w3.org/Graphics/SVG/1.1/DTD/svg11.dtd">
<!-- Uploaded to: SVG Repo, www.svgrepo.com, Transformed by: SVG Repo Mixer Tools -->
<svg width="800px" height="800px" viewBox="-54.4 -54.4 1196.80 1196.80" fill="#CCCCCC" class="icon" version="1.1" xmlns="http://www.w3.org/2000/svg" stroke="#CCCCCC" transform="matrix(1, 0, 0, 1, 0, 0)" stroke-width="3.2640000000000002">
<g id="SVGRepo_bgCarrier" stroke-width="0">
<path transform="translate(-54.4, -54.4), scale(74.8)" fill="#044e7c" d="M9.166.33a2.25 2.25 0 00-2.332 0l-5.25 3.182A2.25 2.25 0 00.5 5.436v5.128a2.25 2.25 0 001.084 1.924l5.25 3.182a2.25 2.25 0 002.332 0l5.25-3.182a2.25 2.25 0 001.084-1.924V5.436a2.25 2.25 0 00-1.084-1.924L9.166.33z" strokewidth="0"/>
</g>
<g id="SVGRepo_tracerCarrier" stroke-linecap="round" stroke-linejoin="round"/>
<g id="SVGRepo_iconCarrier">
<path d="M992 64H768c-52.8 0-126.546 30.546-163.882 67.882L227.882 508.118c-37.334 37.334-37.334 98.428 0 135.764l280.236 280.232c37.334 37.336 98.428 37.336 135.764 0l376.232-376.232C1057.454 510.546 1088 436.8 1088 384V160c0-52.8-43.2-96-96-96z m-128 320c-53.02 0-96-42.98-96-96s42.98-96 96-96 96 42.98 96 96-42.98 96-96 96zM86.626 598.624l342.378 342.378c-36.264 19.16-82.462 13.54-112.886-16.888L35.882 643.882c-37.334-37.336-37.334-98.43 0-135.764L412.118 131.882C449.454 94.546 523.2 64 576 64L86.626 553.372c-12.444 12.446-12.444 32.808 0 45.252z"/>
</g>
</svg>