<svg width="202" height="41" viewBox="0 0 202 41" fill="none" xmlns="http://www.w3.org/2000/svg">
<rect width="201" height="40" transform="translate(0.5 0.5)" fill="url(#paint0_linear_23_1663)"/>
<path d="M52.0264 24.1396V25.5H46.7422V24.1396H52.0264ZM47.2275 15.5469V25.5H45.5117V15.5469H47.2275ZM51.3359 19.7031V21.043H46.7422V19.7031H51.3359ZM51.9922 15.5469V16.9141H46.7422V15.5469H51.9922ZM54.8334 15.5469L56.9457 19.1768L59.058 15.5469H61.0336L58.0258 20.4756L61.1088 25.5H59.1127L56.9457 21.8018L54.7787 25.5H52.7758L55.8656 20.4756L52.851 15.5469H54.8334ZM66.2537 21.7881H63.6629V20.4277H66.2537C66.7049 20.4277 67.0695 20.3548 67.3475 20.209C67.6255 20.0632 67.8283 19.8626 67.9559 19.6074C68.088 19.3477 68.1541 19.0514 68.1541 18.7188C68.1541 18.4043 68.088 18.1104 67.9559 17.8369C67.8283 17.5589 67.6255 17.3356 67.3475 17.167C67.0695 16.9984 66.7049 16.9141 66.2537 16.9141H64.1893V25.5H62.4734V15.5469H66.2537C67.0239 15.5469 67.6779 15.6836 68.2156 15.957C68.7579 16.2259 69.1704 16.5996 69.4529 17.0781C69.7355 17.5521 69.8768 18.0944 69.8768 18.7051C69.8768 19.3477 69.7355 19.8991 69.4529 20.3594C69.1704 20.8197 68.7579 21.1729 68.2156 21.4189C67.6779 21.665 67.0239 21.7881 66.2537 21.7881ZM77.7492 24.1396V25.5H72.7521V24.1396H77.7492ZM73.2307 15.5469V25.5H71.5148V15.5469H73.2307ZM86.6607 20.25V20.7969C86.6607 21.5488 86.5628 22.2233 86.3668 22.8203C86.1708 23.4173 85.8906 23.9255 85.526 24.3447C85.166 24.764 84.733 25.0853 84.2271 25.3086C83.7213 25.5273 83.1607 25.6367 82.5455 25.6367C81.9348 25.6367 81.3766 25.5273 80.8707 25.3086C80.3694 25.0853 79.9342 24.764 79.565 24.3447C79.1959 23.9255 78.9088 23.4173 78.7037 22.8203C78.5032 22.2233 78.4029 21.5488 78.4029 20.7969V20.25C78.4029 19.498 78.5032 18.8258 78.7037 18.2334C78.9042 17.6364 79.1868 17.1283 79.5514 16.709C79.9205 16.2852 80.3557 15.9639 80.857 15.7451C81.3629 15.5218 81.9212 15.4102 82.5318 15.4102C83.1471 15.4102 83.7076 15.5218 84.2135 15.7451C84.7193 15.9639 85.1546 16.2852 85.5191 16.709C85.8837 17.1283 86.164 17.6364 86.36 18.2334C86.5605 18.8258 86.6607 19.498 86.6607 20.25ZM84.9449 20.7969V20.2363C84.9449 19.6803 84.8902 19.1904 84.7809 18.7666C84.676 18.3382 84.5188 17.9805 84.3092 17.6934C84.1041 17.4017 83.8512 17.1829 83.5504 17.0371C83.2496 16.8867 82.9101 16.8115 82.5318 16.8115C82.1536 16.8115 81.8163 16.8867 81.5201 17.0371C81.2239 17.1829 80.971 17.4017 80.7613 17.6934C80.5563 17.9805 80.399 18.3382 80.2896 18.7666C80.1803 19.1904 80.1256 19.6803 80.1256 20.2363V20.7969C80.1256 21.3529 80.1803 21.8451 80.2896 22.2734C80.399 22.7018 80.5585 23.0641 80.7682 23.3604C80.9824 23.652 81.2376 23.873 81.5338 24.0234C81.83 24.1693 82.1673 24.2422 82.5455 24.2422C82.9283 24.2422 83.2678 24.1693 83.5641 24.0234C83.8603 23.873 84.1109 23.652 84.316 23.3604C84.5211 23.0641 84.676 22.7018 84.7809 22.2734C84.8902 21.8451 84.9449 21.3529 84.9449 20.7969ZM88.4766 15.5469H91.9971C92.7536 15.5469 93.3984 15.6608 93.9316 15.8887C94.4648 16.1165 94.8727 16.4538 95.1553 16.9004C95.4424 17.3424 95.5859 17.8893 95.5859 18.541C95.5859 19.0378 95.4948 19.4753 95.3125 19.8535C95.1302 20.2318 94.8727 20.5508 94.54 20.8105C94.2074 21.0658 93.8109 21.264 93.3506 21.4053L92.8311 21.6582H89.666L89.6523 20.2979H92.0244C92.4346 20.2979 92.7764 20.2249 93.0498 20.0791C93.3232 19.9333 93.5283 19.735 93.665 19.4844C93.8063 19.2292 93.877 18.9421 93.877 18.623C93.877 18.2767 93.8086 17.9759 93.6719 17.7207C93.5397 17.4609 93.3346 17.2627 93.0566 17.126C92.7786 16.9847 92.4255 16.9141 91.9971 16.9141H90.1924V25.5H88.4766V15.5469ZM94.1572 25.5L91.8193 21.0293L93.6172 21.0225L95.9893 25.4111V25.5H94.1572ZM103.91 24.1396V25.5H98.6254V24.1396H103.91ZM99.1107 15.5469V25.5H97.3949V15.5469H99.1107ZM103.219 19.7031V21.043H98.6254V19.7031H103.219ZM103.875 15.5469V16.9141H98.6254V15.5469H103.875ZM112.778 21.7881H110.187V20.4277H112.778C113.229 20.4277 113.593 20.3548 113.871 20.209C114.149 20.0632 114.352 19.8626 114.48 19.6074C114.612 19.3477 114.678 19.0514 114.678 18.7188C114.678 18.4043 114.612 18.1104 114.48 17.8369C114.352 17.5589 114.149 17.3356 113.871 17.167C113.593 16.9984 113.229 16.9141 112.778 16.9141H110.713V25.5H108.997V15.5469H112.778C113.548 15.5469 114.202 15.6836 114.739 15.957C115.282 16.2259 115.694 16.5996 115.977 17.0781C116.259 17.5521 116.401 18.0944 116.401 18.7051C116.401 19.3477 116.259 19.8991 115.977 20.3594C115.694 20.8197 115.282 21.1729 114.739 21.4189C114.202 21.665 113.548 21.7881 112.778 21.7881ZM124.273 24.1396V25.5H119.276V24.1396H124.273ZM119.754 15.5469V25.5H118.039V15.5469H119.754ZM129.712 16.873L126.738 25.5H124.94L128.687 15.5469H129.835L129.712 16.873ZM132.2 25.5L129.22 16.873L129.09 15.5469H130.245L134.005 25.5H132.2ZM132.057 21.8086V23.1689H126.643V21.8086H132.057ZM138.453 15.5469V25.5H136.75V15.5469H138.453ZM141.577 15.5469V16.9141H133.654V15.5469H141.577ZM144.705 15.5469V25.5H142.989V15.5469H144.705ZM148.765 19.9014V21.2617H144.267V19.9014H148.765ZM149.333 15.5469V16.9141H144.267V15.5469H149.333ZM158.737 20.25V20.7969C158.737 21.5488 158.639 22.2233 158.443 22.8203C158.247 23.4173 157.966 23.9255 157.602 24.3447C157.242 24.764 156.809 25.0853 156.303 25.3086C155.797 25.5273 155.237 25.6367 154.621 25.6367C154.011 25.6367 153.452 25.5273 152.946 25.3086C152.445 25.0853 152.01 24.764 151.641 24.3447C151.272 23.9255 150.985 23.4173 150.779 22.8203C150.579 22.2233 150.479 21.5488 150.479 20.7969V20.25C150.479 19.498 150.579 18.8258 150.779 18.2334C150.98 17.6364 151.263 17.1283 151.627 16.709C151.996 16.2852 152.432 15.9639 152.933 15.7451C153.439 15.5218 153.997 15.4102 154.608 15.4102C155.223 15.4102 155.783 15.5218 156.289 15.7451C156.795 15.9639 157.23 16.2852 157.595 16.709C157.96 17.1283 158.24 17.6364 158.436 18.2334C158.636 18.8258 158.737 19.498 158.737 20.25ZM157.021 20.7969V20.2363C157.021 19.6803 156.966 19.1904 156.857 18.7666C156.752 18.3382 156.595 17.9805 156.385 17.6934C156.18 17.4017 155.927 17.1829 155.626 17.0371C155.325 16.8867 154.986 16.8115 154.608 16.8115C154.229 16.8115 153.892 16.8867 153.596 17.0371C153.3 17.1829 153.047 17.4017 152.837 17.6934C152.632 17.9805 152.475 18.3382 152.365 18.7666C152.256 19.1904 152.201 19.6803 152.201 20.2363V20.7969C152.201 21.3529 152.256 21.8451 152.365 22.2734C152.475 22.7018 152.634 23.0641 152.844 23.3604C153.058 23.652 153.313 23.873 153.61 24.0234C153.906 24.1693 154.243 24.2422 154.621 24.2422C155.004 24.2422 155.344 24.1693 155.64 24.0234C155.936 23.873 156.187 23.652 156.392 23.3604C156.597 23.0641 156.752 22.7018 156.857 22.2734C156.966 21.8451 157.021 21.3529 157.021 20.7969ZM160.552 15.5469H164.073C164.829 15.5469 165.474 15.6608 166.007 15.8887C166.541 16.1165 166.949 16.4538 167.231 16.9004C167.518 17.3424 167.662 17.8893 167.662 18.541C167.662 19.0378 167.571 19.4753 167.388 19.8535C167.206 20.2318 166.949 20.5508 166.616 20.8105C166.283 21.0658 165.887 21.264 165.426 21.4053L164.907 21.6582H161.742L161.728 20.2979H164.1C164.51 20.2979 164.852 20.2249 165.126 20.0791C165.399 19.9333 165.604 19.735 165.741 19.4844C165.882 19.2292 165.953 18.9421 165.953 18.623C165.953 18.2767 165.884 17.9759 165.748 17.7207C165.615 17.4609 165.41 17.2627 165.132 17.126C164.854 16.9847 164.501 16.9141 164.073 16.9141H162.268V25.5H160.552V15.5469ZM166.233 25.5L163.895 21.0293L165.693 21.0225L168.065 25.4111V25.5H166.233ZM170.168 15.5469H171.699L174.577 23.2236L177.448 15.5469H178.979L175.179 25.5H173.962L170.168 15.5469ZM169.471 15.5469H170.927L171.18 22.1914V25.5H169.471V15.5469ZM178.221 15.5469H179.684V25.5H177.968V22.1914L178.221 15.5469ZM187.057 22.9365C187.057 22.7314 187.025 22.5492 186.961 22.3896C186.902 22.2301 186.795 22.0843 186.64 21.9521C186.485 21.82 186.266 21.6924 185.984 21.5693C185.706 21.4417 185.35 21.3118 184.917 21.1797C184.443 21.0339 184.006 20.8721 183.605 20.6943C183.208 20.512 182.862 20.3024 182.566 20.0654C182.27 19.8239 182.039 19.5482 181.875 19.2383C181.711 18.9238 181.629 18.5615 181.629 18.1514C181.629 17.7458 181.714 17.3766 181.882 17.0439C182.055 16.7113 182.299 16.4242 182.614 16.1826C182.933 15.9365 183.309 15.7474 183.742 15.6152C184.175 15.4785 184.653 15.4102 185.177 15.4102C185.915 15.4102 186.551 15.5469 187.084 15.8203C187.622 16.0938 188.035 16.4606 188.322 16.9209C188.613 17.3812 188.759 17.8893 188.759 18.4453H187.057C187.057 18.1172 186.986 17.8278 186.845 17.5771C186.708 17.3219 186.499 17.1214 186.216 16.9756C185.938 16.8298 185.585 16.7568 185.157 16.7568C184.751 16.7568 184.414 16.8184 184.145 16.9414C183.876 17.0645 183.676 17.2308 183.543 17.4404C183.411 17.6501 183.345 17.887 183.345 18.1514C183.345 18.3382 183.388 18.5091 183.475 18.6641C183.562 18.8145 183.694 18.9557 183.871 19.0879C184.049 19.2155 184.273 19.3363 184.541 19.4502C184.81 19.5641 185.127 19.6735 185.492 19.7783C186.043 19.9424 186.524 20.1247 186.934 20.3252C187.344 20.5212 187.686 20.7445 187.959 20.9951C188.233 21.2458 188.438 21.5306 188.575 21.8496C188.711 22.1641 188.78 22.5218 188.78 22.9229C188.78 23.3421 188.695 23.7204 188.527 24.0576C188.358 24.3903 188.117 24.6751 187.802 24.9121C187.492 25.1445 187.119 25.3245 186.681 25.4521C186.248 25.5752 185.765 25.6367 185.232 25.6367C184.753 25.6367 184.282 25.5729 183.817 25.4453C183.357 25.3177 182.937 25.124 182.559 24.8643C182.181 24.5999 181.88 24.2718 181.657 23.8799C181.433 23.4834 181.322 23.0208 181.322 22.4922H183.038C183.038 22.8158 183.092 23.0915 183.202 23.3193C183.316 23.5472 183.473 23.734 183.673 23.8799C183.874 24.0212 184.106 24.126 184.371 24.1943C184.639 24.2627 184.927 24.2969 185.232 24.2969C185.633 24.2969 185.968 24.2399 186.237 24.126C186.51 24.012 186.715 23.8525 186.852 23.6475C186.989 23.4424 187.057 23.2054 187.057 22.9365Z" fill="white"/>
<defs>
<linearGradient id="paint0_linear_23_1663" x1="0" y1="20" x2="196.402" y2="20" gradientUnits="userSpaceOnUse">
<stop offset="0.307692" stop-color="#015660"/>
<stop offset="0.975962" stop-color="#02B1C6"/>
</linearGradient>
</defs>
</svg>
